<?xml version="1.0" encoding="utf-8"?>
<svg xml:space="preserve" viewBox="0 0 100 100" y="0" x="0" xmlns="http://www.w3.org/2000/svg" id="圖層_1" version="1.1" style="height: 100%; width: 100%; background: none; shape-rendering: auto;" width="40px" height="40px"><g class="ldl-scale" style="transform-origin: 50% 50%; transform: rotate(0deg) scale(-1, 1);"><g class="ldl-ani"><g class="ldl-layer"><g class="ldl-ani" style="transform-origin: 50px 50px; transform: skewX(0deg); animation: 1.11111s linear -0.740741s infinite normal forwards running jelly-alt-1e3b3255-e320-41e0-8a52-507919d7b336;"><path fill="#333" d="M63.9 54.3h.9H63.9z" style="fill: rgb(104, 156, 197);"></path></g></g><g class="ldl-layer"><g class="ldl-ani" style="transform-origin: 50px 50px; transform: skewX(0deg); animation: 1.11111s linear -0.925926s infinite normal forwards running jelly-alt-1e3b3255-e320-41e0-8a52-507919d7b336;"><path d="M40.4 23.1v-6.7L7.5 43.6l32.9 27.2v-6.7L15.6 43.6z" fill="#666" style="fill: rgb(147, 219, 233);"></path></g></g><g class="ldl-layer"><g class="ldl-ani" style="transform-origin: 50px 50px; transform: skewX(0deg); animation: 1.11111s linear -1.11111s infinite normal forwards running jelly-alt-1e3b3255-e320-41e0-8a52-507919d7b336;"><path fill="#333" d="M92.5 63c0-.6 0-1.2-.1-1.9-.1-2.5-.1-5.4-.7-8.2-.3-1.4-.7-2.8-1.2-4.2-.5-1.4-1.1-2.8-1.8-4.2-1.5-2.7-3.4-5.3-5.8-7.4-1.2-1-2.5-2-3.9-2.6-1.4-.7-2.9-1.1-4.4-1.4-1.5-.3-2.6-.4-4.1-.5l-3.1-.2H56.8v-16l-8.1 6.7-25 20.5 24.8 20.5 8.1 6.7V54.3h17.5c.6 0 .9.1 1.5.3 1.3.3 2.7.8 3.9 1.5 1.3.7 2.6 1.7 3.7 2.8.4.4.7.8 1 1.2 1.8 2.2 3.4 4.9 4.3 8.3V68c.8 5.2 1.7 10.4 2.5 15.6l.7-7.6.3-3.8c.1-1.3.2-2.5.4-3.8v-3.6c.1-.6.1-1.2.1-1.8z" style="fill: rgb(104, 156, 197);"></path></g></g><metadata xmlns:d="https://loading.io/stock/"><d:name>reply to all</d:name><d:tags>group,cc,mail,send,message,deliver,post,reply to all,web application</d:tags><d:license>free</d:license><d:slug>lvfwc5</d:slug></metadata></g></g><style id="jelly-alt-1e3b3255-e320-41e0-8a52-507919d7b336" data-anikit="">@keyframes jelly-alt-1e3b3255-e320-41e0-8a52-507919d7b336
{
  0% {
    animation-timing-function: cubic-bezier(0.1858,0.2841,0.5834,1.4615);
    transform: skewX(0deg);
  }
  31% {
    animation-timing-function: cubic-bezier(0.0467,0.1102,0.4803,1.4719);
    transform: skewX(6.7700000000000005deg);
  }
  41% {
    animation-timing-function: cubic-bezier(0.0469,0.1108,0.4775,1.4732);
    transform: skewX(-4.74deg);
  }
  51% {
    animation-timing-function: cubic-bezier(0.0478,0.1131,0.4723,1.4819);
    transform: skewX(3.3200000000000003deg);
  }
  61% {
    animation-timing-function: cubic-bezier(0.0506,0.1192,0.4639,1.4818);
    transform: skewX(-2.3200000000000003deg);
  }
  71% {
    animation-timing-function: cubic-bezier(0.0581,0.1374,0.457,1.4901);
    transform: skewX(1.6300000000000001deg);
  }
  81% {
    animation-timing-function: cubic-bezier(0.0765,0.1813,0.4542,1.4923);
    transform: skewX(-1.1400000000000001deg);
  }
  91% {
    animation-timing-function: cubic-bezier(0.1747,0.3181,0.341,0.878);
    transform: skewX(0.8deg);
  }
  100% {
    transform: skewX(-0.8200000000000001deg);
  }
}</style></svg>
